<?xml version="1.0" standalone="no"?>
<!DOCTYPE svg PUBLIC "-//W3C//DTD SVG 20010904//EN"
 "http://www.w3.org/TR/2001/REC-SVG-20010904/DTD/svg10.dtd">
<svg version="1.0" xmlns="http://www.w3.org/2000/svg"
 width="1350.000000pt" height="629.000000pt" viewBox="0 0 1350.000000 629.000000"
 preserveAspectRatio="xMidYMid meet">

<g transform="translate(0.000000,629.000000) scale(0.100000,-0.100000)"
fill="#000000" stroke="none">
<path d="M6978 4239 c-266 -39 -442 -173 -487 -370 -13 -56 -13 -171 -1 -227
28 -119 112 -223 224 -277 74 -35 233 -86 408 -130 166 -43 228 -82 228 -146
0 -72 -88 -116 -216 -106 -105 8 -154 40 -189 125 l-14 32 -241 0 -242 0 7
-42 c40 -240 191 -397 441 -460 75 -19 116 -22 259 -22 145 0 183 3 260 23
229 59 365 183 410 372 42 180 -3 344 -124 450 -81 72 -166 106 -446 179 -172
44 -210 59 -254 96 -39 33 -43 89 -8 121 45 42 178 54 242 21 37 -19 74 -60
80 -89 l7 -29 239 0 240 0 -7 38 c-44 249 -207 394 -493 437 -104 16 -232 18
-323 4z"/>
<path d="M1851 4183 c-31 -79 -531 -1509 -531 -1520 0 -11 46 -13 242 -11
l242 3 31 100 31 100 246 3 247 2 21 -72 c12 -40 26 -88 31 -105 l11 -33 244
0 c158 0 244 4 244 10 0 6 -122 357 -271 780 l-272 770 -252 0 -253 0 -11 -27z
m345 -745 l72 -248 -155 0 c-142 0 -154 1 -149 18 3 9 35 118 71 242 36 124
69 234 72 245 8 25 0 47 89 -257z"/>
<path d="M3042 3433 l3 -778 230 0 230 0 3 778 2 777 -235 0 -235 0 2 -777z"/>
<path d="M8042 3433 l3 -778 225 0 225 0 5 350 c5 379 6 380 63 433 49 46 161
49 209 6 42 -39 43 -47 48 -424 l5 -365 228 -3 229 -2 -4 427 c-3 416 -4 430
-26 492 -43 120 -108 188 -222 233 -46 19 -75 22 -175 22 -135 0 -196 -17
-275 -77 -24 -18 -51 -38 -61 -46 -18 -13 -19 -5 -19 248 l0 261 -230 0 -230
0 2 -777z"/>
<path d="M4190 3826 c-247 -53 -409 -202 -464 -429 -22 -88 -22 -270 -1 -352
53 -206 206 -354 425 -412 98 -26 337 -23 445 6 200 53 334 169 380 329 l6 22
-216 0 -216 0 -30 -34 c-38 -44 -84 -59 -164 -54 -106 7 -172 70 -188 179 l-5
36 195 6 c108 4 301 7 430 7 l233 0 0 44 c0 140 -44 299 -111 402 -74 114
-165 183 -305 230 -67 22 -100 27 -214 30 -89 2 -157 -1 -200 -10z m253 -270
c21 -8 48 -22 59 -33 23 -20 52 -81 63 -130 l7 -33 -201 0 c-110 0 -202 3
-204 8 -8 13 20 103 40 130 45 62 151 88 236 58z"/>
<path d="M9925 3825 c-167 -36 -327 -151 -393 -281 -55 -110 -67 -165 -66
-319 0 -126 3 -148 27 -218 67 -192 208 -319 412 -373 97 -25 312 -25 410 0
293 76 459 316 441 636 -15 278 -167 474 -421 545 -85 24 -318 29 -410 10z
m292 -331 c56 -42 83 -129 83 -267 -1 -189 -55 -284 -168 -295 -65 -6 -114 11
-151 53 -43 49 -55 103 -55 245 -1 168 24 237 96 274 47 24 157 18 195 -10z"/>
<path d="M11595 3816 c-74 -18 -138 -53 -186 -102 -24 -24 -47 -44 -51 -44 -4
0 -8 29 -8 65 l0 65 -200 0 -200 0 0 -805 0 -805 220 0 220 0 0 281 0 280 58
-45 c70 -55 112 -73 199 -86 263 -37 482 121 554 397 21 81 28 266 14 348 -40
233 -169 395 -353 447 -76 21 -191 23 -267 4z m71 -345 c33 -15 47 -30 68 -73
50 -103 43 -288 -14 -368 -42 -59 -154 -80 -228 -43 -27 14 -45 34 -67 78 -28
55 -30 68 -30 165 0 95 3 110 29 164 23 47 36 62 70 77 22 10 61 19 86 19 25
0 64 -9 86 -19z"/>
<path d="M5100 3794 c0 -4 79 -122 176 -262 97 -141 178 -262 181 -269 3 -7
-83 -143 -191 -302 -108 -160 -196 -295 -196 -301 0 -7 82 -10 245 -10 l244 0
70 138 c39 75 76 146 84 156 13 17 21 6 96 -138 l82 -156 249 0 c167 0 250 3
250 10 0 6 -85 141 -190 299 -104 159 -190 294 -190 301 0 7 83 129 185 272
102 142 185 261 185 263 0 3 -111 5 -247 5 l-248 0 -68 -125 c-37 -68 -72
-127 -76 -130 -5 -3 -40 52 -78 123 l-69 127 -247 3 c-136 1 -247 -1 -247 -4z"/>
</g>
</svg>
